<svg width="56" height="56" viewBox="0 0 56 56" fill="none" xmlns="http://www.w3.org/2000/svg">
<path d="M32.4401 44.0512H54.6201V56.0012H20.5001L32.4401 44.0512ZM0.00012207 44.7512L33.1801 11.5612L44.4301 22.8112L11.2501 56.0012H0.00012207V44.7512ZM49.5001 13.5L47.0001 16.5L36.4201 8.33123L41.9001 2.84123C42.1769 2.56599 42.5065 2.34966 42.8691 2.20529C43.2318 2.06092 43.6199 1.99151 44.0101 2.00123C44.4005 1.98975 44.7892 2.05835 45.1521 2.20282C45.515 2.34729 45.8444 2.56456 46.1201 2.84123L53.1201 9.84124C53.6728 10.4025 51.5001 10.2123 51.5001 11C51.5001 11.7877 51.5527 11.9388 51.0001 12.5L49.5001 13.5Z" fill="#C4C4C4"/>
<path d="M47.189 19.7254L36.0001 8.46861L44.0003 0.516602L55.1892 11.7734L47.189 19.7254Z" fill="#C4C4C4"/>
</svg>
